<svg width="14" height="14" viewBox="0 0 14 14" fill="none" xmlns="http://www.w3.org/2000/svg">
<circle cx="7" cy="7" r="6.25" stroke="#FF3B30" stroke-width="1.5"/>
<path d="M7.78125 10.5996C7.78125 10.7642 7.735 10.9252 7.64844 11.0615C7.56195 11.1977 7.4395 11.303 7.29688 11.3652C7.15415 11.4274 6.99696 11.4438 6.8457 11.4121C6.69454 11.3804 6.55508 11.302 6.44531 11.1865C6.33565 11.071 6.26002 10.9238 6.22949 10.7627C6.19901 10.6015 6.21479 10.4339 6.27441 10.2822C6.33416 10.1305 6.43562 10.0007 6.56445 9.91016C6.69316 9.81975 6.84404 9.7715 6.99805 9.77148H7.08008C7.15738 9.77518 7.23386 9.79129 7.30664 9.82031C7.40373 9.85906 7.49255 9.91936 7.56641 9.99707C7.64019 10.0748 7.69814 10.1682 7.73535 10.2715C7.77254 10.3747 7.78854 10.4853 7.78223 10.5957H7.78125V10.5996ZM6.99902 2.57129C7.20516 2.57204 7.40384 2.65885 7.55078 2.81348C7.69801 2.96847 7.78081 3.17975 7.78125 3.40039H7.78223L7.43945 8.33984C7.41981 8.44959 7.36566 8.54854 7.28516 8.61914C7.20417 8.69016 7.10229 8.72852 6.99805 8.72852C6.89384 8.7285 6.79191 8.69014 6.71094 8.61914C6.63043 8.5485 6.57527 8.44963 6.55566 8.33984L6.21484 3.48535C6.20709 3.3699 6.2209 3.25377 6.25684 3.14453C6.29285 3.0352 6.35018 2.93486 6.42383 2.84961C6.49747 2.76439 6.58651 2.69608 6.68555 2.64844C6.78428 2.60095 6.89079 2.57423 6.99902 2.57129Z" fill="#FF3B30" stroke="#FF3B30" stroke-width="0.143495"/>
</svg>
