<svg width="16" height="16" viewBox="0 0 16 16" fill="none" xmlns="http://www.w3.org/2000/svg">
<g clip-path="url(#clip0_23487_22718)">
<path d="M2.34025 3.07873C1.19403 4.39584 0.5 6.11687 0.5 8C0.5 12.1421 3.85786 15.5 8 15.5C9.03001 15.5 10.0115 15.2924 10.905 14.9167M13.6994 12.8753C14.822 11.5642 15.5 9.8613 15.5 8C15.5 3.85786 12.1421 0.5 8 0.5C7.04355 0.5 6.12893 0.679034 5.2878 1.00542" stroke="#949494" stroke-linecap="round"/>
<path d="M10.6366 4.44422C10.4116 4.44422 10.2166 4.50422 10.0216 4.60922C9.81156 4.48922 9.60156 4.44422 9.36156 4.44422C9.10656 4.44422 8.88156 4.50422 8.65656 4.63922C8.44656 4.51922 8.22156 4.45922 7.98156 4.45922C7.75656 4.45922 7.53156 4.51922 7.33656 4.62422C7.12656 4.50422 6.91656 4.45922 6.67656 4.45922C6.43656 4.45922 6.21156 4.51922 6.01656 4.63922C5.80656 4.51922 5.58156 4.45922 5.35656 4.45922C4.78656 4.45922 4.29156 4.83422 3.90156 5.43422V2.40422C3.90156 2.23922 3.75156 2.07422 3.57156 2.07422C3.39156 2.07422 3.24156 2.23922 3.24156 2.40422V7.66922C3.22656 7.83422 3.22656 7.98422 3.22656 8.14922C3.22656 10.2342 4.15656 11.8542 5.35656 11.8542C5.59656 11.8542 5.82156 11.7942 6.01656 11.6742C6.22656 11.7942 6.45156 11.8542 6.67656 11.8542C6.90156 11.8542 7.12656 11.7942 7.32156 11.6892C7.53156 11.7942 7.74156 11.8542 7.98156 11.8542C8.23656 11.8542 8.46156 11.7942 8.68656 11.6592C8.89656 11.7792 9.12156 11.8392 9.36156 11.8392C9.58656 11.8392 9.78156 11.7792 9.97656 11.6742C10.1866 11.7942 10.3966 11.8392 10.6366 11.8392C11.2216 11.8392 11.7316 11.4492 12.1066 10.8342V13.5942C12.1066 13.7742 12.2566 13.9242 12.4366 13.9242C12.6166 13.9242 12.7666 13.7742 12.7666 13.5942V10.4742V8.05922C12.7816 8.04422 12.7666 8.01422 12.7666 7.99922C12.7216 5.98922 11.7916 4.44422 10.6366 4.44422ZM5.35656 11.2092C4.65156 11.2092 3.88656 9.94922 3.88656 8.16422C3.88656 8.13422 3.88656 8.10422 3.88656 8.07422C3.90156 8.04422 3.90156 8.01422 3.90156 7.98422V7.72922C4.00656 6.16922 4.71156 5.11922 5.35656 5.11922C5.38656 5.11922 5.41656 5.11922 5.44656 5.13422C4.90656 5.79422 4.54656 6.90422 4.54656 8.16422C4.54656 9.42422 4.89156 10.5342 5.44656 11.1942C5.41656 11.2092 5.38656 11.2092 5.35656 11.2092ZM6.67656 11.2092C5.97156 11.2092 5.20656 9.94922 5.20656 8.16422C5.20656 6.93422 5.56656 5.97422 6.01656 5.47922C6.03156 5.46422 6.04656 5.43422 6.07656 5.41922C6.09156 5.40422 6.12156 5.37422 6.13656 5.35922C6.16656 5.32922 6.19656 5.31422 6.21156 5.29922C6.22656 5.28422 6.25656 5.26922 6.27156 5.25422C6.30156 5.22422 6.33156 5.20922 6.36156 5.19422C6.37656 5.17922 6.39156 5.17922 6.40656 5.16422C6.45156 5.13422 6.48156 5.11922 6.52656 5.10422H6.54156C6.57156 5.10422 6.60156 5.08922 6.60156 5.08922C6.63156 5.08922 6.66156 5.07422 6.69156 5.07422C6.72156 5.07422 6.75156 5.07422 6.75156 5.08922C6.21156 5.74922 5.85156 6.85922 5.85156 8.13422C5.85156 9.40922 6.21156 10.5042 6.75156 11.1792C6.73656 11.2092 6.70656 11.2092 6.67656 11.2092ZM7.98156 11.2092C7.27656 11.2092 6.51156 9.94922 6.51156 8.16422C6.51156 6.93422 6.88656 5.95922 7.33656 5.46422L7.35156 5.44922C7.38156 5.41922 7.41156 5.38922 7.44156 5.35922C7.45656 5.34422 7.47156 5.34422 7.47156 5.32922C7.50156 5.29922 7.53156 5.26922 7.56156 5.26922C7.57656 5.25422 7.60656 5.23922 7.62156 5.22422C7.65156 5.20922 7.66656 5.19422 7.68156 5.19422C7.71156 5.17922 7.74156 5.16422 7.77156 5.14922C7.83156 5.13422 7.86156 5.11922 7.92156 5.10422C7.95156 5.10422 7.98156 5.08922 7.98156 5.08922C8.02656 5.08922 8.05656 5.08922 8.10156 5.10422C7.56156 5.77922 7.21656 6.87422 7.21656 8.11922C7.23156 9.39422 7.57656 10.5042 8.13156 11.1792C8.07156 11.2092 8.04156 11.2092 7.98156 11.2092ZM9.36156 11.1942C8.65656 11.1942 7.89156 9.93422 7.89156 8.14922C7.89156 6.94922 8.23656 6.00422 8.67156 5.49422C8.73156 5.41922 8.80656 5.34422 8.86656 5.29922C8.89656 5.28422 8.92656 5.25422 8.92656 5.23922C8.94156 5.22422 8.97156 5.20922 8.98656 5.19422C9.01656 5.17922 9.04656 5.16422 9.06156 5.14922C9.07656 5.14922 9.09156 5.13422 9.10656 5.13422C9.13656 5.11922 9.16656 5.10422 9.19656 5.10422C9.25656 5.08922 9.28656 5.08922 9.34656 5.08922C9.37656 5.08922 9.39156 5.08922 9.40656 5.08922C8.85156 5.76422 8.49156 6.88922 8.49156 8.16422C8.49156 9.42422 8.83656 10.5192 9.36156 11.1942ZM10.6366 11.2092C10.6066 11.2092 10.5916 11.2092 10.5766 11.1942L10.5916 11.1792C10.3966 11.1642 10.2016 11.0442 9.99156 10.8492C9.99156 10.8492 9.99156 10.8492 9.97656 10.8642C9.52656 10.3692 9.15156 9.39422 9.15156 8.16422C9.16656 6.36422 9.94656 5.11922 10.6366 5.11922C11.3266 5.11922 12.1066 6.37922 12.1066 8.16422C12.1066 9.94922 11.3416 11.2092 10.6366 11.2092Z" fill="#009688" stroke="#049588" stroke-width="0.1"/>
</g>
<defs>
<clipPath id="clip0_23487_22718">
<rect width="16" height="16" fill="white"/>
</clipPath>
</defs>
</svg>
