<svg width="14" height="14" viewBox="0 0 14 14" fill="none" xmlns="http://www.w3.org/2000/svg">
<path d="M6.6543 2.38867C6.80865 2.12407 7.19135 2.12407 7.3457 2.38867L12.6045 11.4043C12.7597 11.6709 12.5674 12.0059 12.2588 12.0059H1.74121C1.43261 12.0059 1.24026 11.6709 1.39551 11.4043L6.6543 2.38867Z" stroke="#FF842D" stroke-width="1.2"/>
<path d="M7.00098 9.62207H7.00586C7.07122 9.61791 7.13682 9.62784 7.19824 9.65234C7.25966 9.67685 7.31542 9.71534 7.3623 9.76465C7.40922 9.81402 7.446 9.87363 7.46973 9.93945C7.49336 10.0051 7.50398 10.0753 7.5 10.1455V10.1504C7.49993 10.2555 7.47021 10.3584 7.41504 10.4453C7.35983 10.5321 7.28103 10.5992 7.19043 10.6387C7.10004 10.678 7.00095 10.6879 6.90527 10.668C6.80929 10.6479 6.72036 10.598 6.65039 10.5244C6.58048 10.4508 6.53221 10.3569 6.5127 10.2539C6.49319 10.1507 6.50284 10.0433 6.54102 9.94629C6.57916 9.84952 6.64381 9.76752 6.72559 9.70996C6.80738 9.65245 6.90336 9.62215 7.00098 9.62207ZM7.00195 4.82129C7.13263 4.82179 7.25896 4.87711 7.35254 4.97559C7.4229 5.0497 7.47072 5.14404 7.49023 5.24609L7.5 5.35059L7.27246 8.6377C7.2605 8.70624 7.22656 8.76785 7.17676 8.81152C7.12704 8.85506 7.06447 8.87793 7.00098 8.87793C6.93766 8.87784 6.87577 8.85491 6.82617 8.81152C6.77679 8.76823 6.74173 8.70748 6.72949 8.63965L6.50293 5.40527C6.49797 5.33142 6.50733 5.25733 6.53027 5.1875C6.5533 5.11759 6.58975 5.05341 6.63672 4.99902C6.68364 4.94472 6.73984 4.90043 6.80273 4.87012C6.86536 4.83999 6.93341 4.82324 7.00195 4.82129Z" fill="#FF842D" stroke="#FF842D" stroke-width="0.143495"/>
</svg>
