<svg width="16" height="16" viewBox="0 0 16 16" fill="none" xmlns="http://www.w3.org/2000/svg">
<g clip-path="url(#clip0_22233_2587)">
<path d="M11.8795 6.74572C11.8795 7.15943 11.6727 7.36743 11.2578 7.36743H5.04069C4.62697 7.36743 4.42012 7.15943 4.42012 6.74572C4.42012 6.332 4.62697 6.12514 5.04069 6.12514H11.2578C11.6727 6.13314 11.8795 6.34 11.8795 6.74572ZM11.8795 9.12629C11.8795 9.54 11.6727 9.74686 11.2578 9.74686H5.04069C4.62697 9.74686 4.42012 9.54 4.42012 9.12629C4.42012 8.71257 4.62697 8.50572 5.04069 8.50572H11.2578C11.6727 8.51372 11.8795 8.72057 11.8795 9.12629ZM15.1264 9.5C15.0056 9.49956 14.8878 9.53798 14.7904 9.60959C14.6931 9.68121 14.6214 9.78222 14.5858 9.89772C14.2639 10.973 13.6813 11.9521 12.8898 12.748L12.8818 12.756C12.2533 13.3906 11.5041 13.8929 10.6783 14.2332C9.85253 14.5736 8.96696 14.7451 8.07383 14.7377C6.83582 14.7401 5.62072 14.4039 4.55997 13.7656C3.49922 13.1272 2.63319 12.211 2.05554 11.116C2.3424 10.8303 3.14697 10.2166 3.14697 10.2166C3.14697 10.2166 0.551545 9.03029 0.304688 9.03029C0.312688 9.436 0.368687 9.83486 0.471545 10.2246C0.845139 11.4604 1.51481 12.5863 2.4224 13.5046L2.4704 13.5526C3.9984 15.0246 5.97212 15.868 8.06583 15.868C10.1635 15.8632 12.1745 15.0312 13.6624 13.5526C14.5964 12.628 15.2833 11.4837 15.6601 10.2246C15.6843 10.141 15.689 10.053 15.6737 9.9673C15.6585 9.88163 15.6237 9.80063 15.5721 9.73057C15.5205 9.66051 15.4534 9.60327 15.3761 9.56329C15.2989 9.5233 15.2134 9.50165 15.1264 9.5ZM0.870402 6.49086C1.11612 6.49086 1.33897 6.332 1.41097 6.09314C1.73295 5.01788 2.31554 4.03879 3.10697 3.24286L3.11497 3.23486C3.74557 2.60369 4.4954 2.10425 5.32083 1.76561C6.14626 1.42696 7.0308 1.25587 7.92297 1.26229C9.1611 1.26004 10.3763 1.59638 11.437 2.23493C12.4978 2.87349 13.3638 3.78994 13.9413 4.88515C13.6544 5.17086 12.8498 5.78343 12.8498 5.78343C12.8498 5.78343 15.4453 6.96972 15.6921 6.96972C15.6846 6.56637 15.6286 6.16538 15.5253 5.77543C15.1517 4.5396 14.482 3.41366 13.5744 2.49543L13.5264 2.44857C11.9984 0.982288 10.0167 0.130859 7.93097 0.130859C5.83079 0.135739 3.81713 0.968058 2.3264 2.44743C1.39254 3.3717 0.705646 4.51561 0.328688 5.77429C0.287152 5.9178 0.303951 6.0719 0.375432 6.20309C0.446913 6.33429 0.567295 6.43195 0.710402 6.47486C0.766402 6.49086 0.813259 6.49086 0.870402 6.49086Z" fill="#949494"/>
</g>
<defs>
<clipPath id="clip0_22233_2587">
<rect width="16" height="16" fill="white"/>
</clipPath>
</defs>
</svg>
