<svg width="16" height="16" viewBox="0 0 16 16" fill="none" xmlns="http://www.w3.org/2000/svg">
<path d="M12.3904 7.99887L12.0401 8.34924L14.5907 5.78105C14.8528 5.51832 15 5.16237 15 4.79126C15 4.42016 14.8528 4.06421 14.5907 3.80148L12.2117 1.40147C11.949 1.13938 11.593 0.992188 11.2219 0.992188C10.8508 0.992188 10.4949 1.13938 10.2322 1.40147L8.00733 3.61929L5.85258 1.42599C5.57302 1.14871 5.19523 0.993116 4.80148 0.993116C4.40773 0.993116 4.02993 1.14871 3.75038 1.42599L1.43445 3.74892C1.15801 4.02892 1.003 4.40655 1.003 4.80002C1.003 5.1935 1.15801 5.57113 1.43445 5.85112L3.64527 7.99887L1.96701 9.68063C1.70901 9.97066 1.56356 10.3436 1.55708 10.7317L1 13.5697C1.01934 13.9309 1.16623 14.2735 1.41453 14.5366C1.66283 14.7997 1.99642 14.9661 2.35592 15.0062L5.27447 14.4491C5.67089 14.4476 6.05321 14.3019 6.3501 14.0392L8.00733 12.3714L10.1901 14.5717C10.4697 14.849 10.8475 15.0046 11.2412 15.0046C11.635 15.0046 12.0128 14.849 12.2923 14.5717L14.5662 12.2698C14.8426 11.9898 14.9976 11.6122 14.9976 11.2187C14.9976 10.8253 14.8426 10.4476 14.5662 10.1676L12.3904 7.99887ZM10.8628 2.04264C10.962 1.94401 11.0961 1.88864 11.236 1.88864C11.3758 1.88864 11.51 1.94401 11.6091 2.04264L13.9846 4.41812C14.0338 4.46698 14.0729 4.52511 14.0996 4.58915C14.1263 4.65319 14.14 4.72189 14.14 4.79126C14.14 4.86064 14.1263 4.92934 14.0996 4.99338C14.0729 5.05742 14.0338 5.11555 13.9846 5.16441L12.7163 6.44675L9.58048 3.29345L10.8628 2.04264ZM3.36147 6.47478L4.4406 5.39915C4.52129 5.3161 4.56643 5.20487 4.56643 5.08908C4.56643 4.97328 4.52129 4.86205 4.4406 4.779C4.39992 4.73822 4.35159 4.70586 4.29838 4.68378C4.24517 4.6617 4.18813 4.65034 4.13053 4.65034C4.07292 4.65034 4.01588 4.6617 3.96267 4.68378C3.90946 4.70586 3.86113 4.73822 3.82045 4.779L2.75183 5.85813L2.0511 5.23448C1.93663 5.11956 1.87237 4.96397 1.87237 4.80178C1.87237 4.63958 1.93663 4.48399 2.0511 4.36907L4.36352 2.04264C4.47903 1.92796 4.6352 1.8636 4.79797 1.8636C4.96075 1.8636 5.11692 1.92796 5.23243 2.04264L7.39769 4.23593L3.99914 7.6485L4.26542 7.38223L3.36147 6.47478ZM5.73345 13.4225C5.67039 13.4821 5.56528 13.5417 5.19389 13.5767H5.15184L2.40147 13.9796C2.29616 13.9597 2.19946 13.9081 2.12431 13.8317C2.04916 13.7553 1.99917 13.6578 1.98103 13.5522L2.41898 10.8719C2.42066 10.8567 2.42066 10.8415 2.41898 10.8263C2.45752 10.476 2.51008 10.3673 2.57665 10.3008L8.96383 3.9136L12.0961 7.04587L5.73345 13.4225ZM13.9636 11.6497L11.6862 13.9551C11.6289 14.0129 11.5606 14.0589 11.4855 14.0902C11.4103 14.1215 11.3297 14.1376 11.2482 14.1376C11.1668 14.1376 11.0862 14.1215 11.011 14.0902C10.9358 14.0589 10.8676 14.0129 10.8103 13.9551L10.1551 13.2789L11.2377 12.2033C11.3121 12.1196 11.3516 12.0107 11.3481 11.8988C11.3447 11.787 11.2986 11.6806 11.2192 11.6017C11.1398 11.5228 11.0333 11.4773 10.9214 11.4745C10.8095 11.4717 10.7008 11.5118 10.6176 11.5866L9.54194 12.6622L8.63799 11.7513L8.40325 11.986L11.7703 8.61201L13.9636 10.8018C14.0728 10.9159 14.1337 11.0678 14.1337 11.2257C14.1337 11.3837 14.0728 11.5356 13.9636 11.6497Z" fill="#949494"/>
<path d="M3.0751 5.4836L2.72258 5.83818L3.43176 6.54322L3.78427 6.18863L3.42969 5.83611L3.0751 5.4836ZM4.47959 5.48924C4.67428 5.2934 4.67335 4.97682 4.47752 4.78213C4.28168 4.58744 3.9651 4.58837 3.77041 4.7842L4.125 5.13672L4.47959 5.48924ZM3.42969 5.83611L3.78427 6.18863L4.47959 5.48924L4.125 5.13672L3.77041 4.7842L3.0751 5.4836L3.42969 5.83611Z" fill="#009688"/>
<path d="M9.87979 12.3039L9.52727 12.6585L10.2364 13.3635L10.589 13.0089L10.2344 12.6564L9.87979 12.3039ZM11.2843 12.3095C11.479 12.1137 11.478 11.7971 11.2822 11.6024C11.0864 11.4078 10.7698 11.4087 10.5751 11.6045L10.9297 11.957L11.2843 12.3095ZM10.2344 12.6564L10.589 13.0089L11.2843 12.3095L10.9297 11.957L10.5751 11.6045L9.87979 12.3039L10.2344 12.6564Z" fill="#009688"/>
</svg>
