<svg width="18" height="18" viewBox="0 0 18 18" fill="none" xmlns="http://www.w3.org/2000/svg">
<g clip-path="url(#clip0_25276_58593)">
<path d="M5.78313 9.00183C5.78313 10.0625 5.97599 10.8233 6.1617 11.3104C6.25456 11.5547 6.3467 11.7318 6.4117 11.844L6.4217 11.859H9.71099V12.5733H6.05813L5.95099 12.439L6.22956 12.2161C5.97528 12.4197 5.95242 12.4375 5.95099 12.4397L5.94956 12.4383L5.94813 12.4361C5.94813 12.4347 5.94599 12.4333 5.94528 12.4318C5.94167 12.4271 5.9381 12.4223 5.93456 12.4175L5.90099 12.3718C5.86392 12.3174 5.82889 12.2617 5.79599 12.2047C5.71028 12.0604 5.60242 11.8475 5.49456 11.5647C5.27813 10.9975 5.06885 10.1504 5.06885 9.00183C5.06885 7.85254 5.27813 7.00612 5.49456 6.43897C5.6017 6.15612 5.71099 5.94326 5.79599 5.79897C5.83813 5.72612 5.87456 5.6704 5.90099 5.63183L5.93456 5.58612L5.94528 5.57183L5.94813 5.56754L5.94956 5.5654H5.95028C5.95242 5.56612 5.97528 5.58397 6.22956 5.78754L5.95099 5.56469L6.05813 5.4304L9.74813 5.42969L9.71099 6.14397L6.4217 6.14469L6.41242 6.15897C6.31406 6.32985 6.22997 6.50855 6.16099 6.69326C5.97528 7.1804 5.78313 7.94112 5.78313 9.00183Z" fill="#009688"/>
<path d="M9.71282 9C9.71282 10.2936 9.97711 11.43 10.37 12.2164C10.7842 13.045 11.2242 13.2857 11.4985 13.2857C11.7728 13.2857 12.2128 13.045 12.6271 12.2164C13.02 11.4307 13.2842 10.2936 13.2842 9C13.2842 7.70643 13.02 6.57 12.6271 5.78357C12.2128 4.955 11.7728 4.71429 11.4985 4.71429V4C12.8792 4 13.9985 6.23857 13.9985 9C13.9985 11.7614 12.8792 14 11.4985 14C10.1178 14 8.99854 11.7614 8.99854 9C8.99854 6.23857 10.1178 4 11.4985 4V4.71429C11.2242 4.71429 10.7842 4.955 10.37 5.78357C9.97639 6.56929 9.71211 7.70643 9.71211 9H9.71282Z" fill="#009688"/>
<path d="M11.1421 9.00319C11.1421 9.35391 11.2135 9.65462 11.3135 9.85319C11.3635 9.95319 11.4135 10.0139 11.4521 10.046C11.4654 10.0581 11.4806 10.0677 11.4971 10.0746H11.5014L11.5078 10.0725C11.5219 10.0659 11.5349 10.0572 11.5464 10.0468C11.6047 9.9921 11.6518 9.92659 11.685 9.85391C11.785 9.65391 11.8564 9.35391 11.8564 9.00319C11.8564 8.65248 11.785 8.35176 11.685 8.15319C11.6518 8.08026 11.6047 8.0145 11.5464 7.95962C11.5349 7.94919 11.5219 7.94052 11.5078 7.93391L11.5007 7.93176H11.4992V7.57462C11.8935 7.57462 12.2135 8.21391 12.2135 9.00319C12.2135 9.79248 11.8935 10.4318 11.4992 10.4318C11.105 10.4318 10.785 9.79248 10.785 9.00319C10.785 8.21391 11.105 7.57462 11.4992 7.57462V7.93176H11.4971L11.4907 7.93391C11.4766 7.94052 11.4636 7.94919 11.4521 7.95962C11.3938 8.01428 11.3467 8.07979 11.3135 8.15248C11.2135 8.35248 11.1421 8.65248 11.1421 9.00319ZM6.77711 5.67033L6.21854 5.22391L6.43354 4.95605H7.02354C6.82354 4.78462 6.63925 4.71891 6.49854 4.71891V4.00462C7.23854 4.00462 7.82639 4.40891 8.28425 5.43033L6.77711 5.66962V5.67033ZM4.71282 9.00391C4.71282 10.2968 4.97711 11.4332 5.36996 12.2196C5.75854 12.9968 6.16996 13.2575 6.44568 13.2868L6.49854 13.2896C6.63925 13.2896 6.81996 13.2296 7.02568 13.0503H6.42996L6.21568 12.7789C6.11211 12.646 5.22925 11.4496 5.22925 9.00319C5.22925 7.76891 5.45425 6.84962 5.69354 6.22319C5.78609 5.97578 5.89885 5.7364 6.03068 5.50748C6.07854 5.42533 6.12068 5.36033 6.15354 5.31319C6.16925 5.28962 6.18425 5.27033 6.19496 5.25605L6.20925 5.23676L6.21496 5.22962L6.21854 5.22391C6.22068 5.22462 6.24996 5.24891 6.77711 5.67033C6.77711 5.67033 5.94354 6.71248 5.94354 9.00319C5.94354 11.2646 6.75568 12.3089 6.77711 12.336H8.36068C7.90354 13.3589 7.23925 14.0039 6.49854 14.0039C5.11782 14.0039 3.99854 11.7646 3.99854 9.00391C3.99854 6.24319 5.11782 4.00462 6.49854 4.00391V4.71819C6.22425 4.71891 5.78425 4.96033 5.36996 5.78891C5.00139 6.52605 4.74639 7.56962 4.71568 8.76319L4.71282 9.00391ZM8.36068 12.336L8.37782 12.3003L8.36211 12.336H8.36068Z" fill="#009688"/>
<path d="M4.74989 16.3633C2.90199 15.2964 1.60602 13.6392 0.962904 11.7682C0.873189 11.5072 1.01141 11.2226 1.27231 11.1327C1.53346 11.043 1.81843 11.1823 1.90819 11.4435C2.47588 13.0949 3.61884 14.5556 5.24989 15.4973C8.83708 17.5683 13.424 16.3393 15.4951 12.7521C16.0105 11.8593 16.3215 10.9054 16.4428 9.94452C16.4776 9.67086 16.7271 9.47682 17.0008 9.51118C17.2748 9.54576 17.4691 9.79658 17.4345 10.0705C17.2969 11.1609 16.9442 12.2421 16.3611 13.2521C14.0139 17.3176 8.81538 18.7105 4.74989 16.3633ZM12.7499 2.50687C9.16269 0.435806 4.57576 1.66487 2.5047 5.25206C2.02608 6.08106 1.7238 6.9623 1.58598 7.85309C1.54377 8.12599 1.2882 8.31344 1.0153 8.27123C0.742705 8.2289 0.556054 7.97368 0.598005 7.70104C0.754413 6.6898 1.09714 5.69002 1.63867 4.75206C3.98588 0.686578 9.1844 -0.706362 13.2499 1.64085C15.0764 2.69539 16.3639 4.32671 17.0145 6.17112C17.1063 6.43152 16.9697 6.71722 16.7093 6.80907C16.449 6.90075 16.1633 6.76414 16.0714 6.5039C15.4971 4.87592 14.3622 3.43772 12.7499 2.50687Z" fill="#7B8282"/>
<path d="M1.47705 10.1953L2.97705 12.1953H-0.0229492L1.47705 10.1953Z" fill="#7B8282"/>
<path d="M16.5362 8.15234L18.0758 6.15234H14.9966L16.5362 8.15234Z" fill="#7B8282"/>
</g>
<defs>
<clipPath id="clip0_25276_58593">
<rect width="18" height="18" fill="white"/>
</clipPath>
</defs>
</svg>
