<svg width="19" height="16" viewBox="0 0 19 16" fill="none" xmlns="http://www.w3.org/2000/svg">
<path d="M9.56413 2L16.6436 14.2619H2.4847L9.56413 2ZM10.4302 0.5C10.0453 -0.166667 9.083 -0.166667 8.6981 0.5L0.752654 14.2619C0.367754 14.9286 0.848879 15.7619 1.61868 15.7619H17.5096C18.2794 15.7619 18.7605 14.9286 18.3756 14.2619L10.4302 0.5Z" fill="#FF6F00"/>
<path d="M9.16113 11.1747L8.97913 3.43271H10.2251L10.0431 11.1747H9.16113ZM9.60913 14.2127C9.39446 14.2127 9.20779 14.1334 9.04912 13.9747C8.89979 13.816 8.82512 13.6294 8.82512 13.4147C8.82512 13.1907 8.89979 12.9994 9.04912 12.8407C9.20779 12.682 9.39446 12.6027 9.60913 12.6027C9.83313 12.6027 10.0198 12.682 10.1691 12.8407C10.3278 12.9994 10.4071 13.1907 10.4071 13.4147C10.4071 13.6294 10.3278 13.816 10.1691 13.9747C10.0198 14.1334 9.83313 14.2127 9.60913 14.2127Z" fill="#FF6F00"/>
</svg>
