<svg width="164" height="171" viewBox="0 0 164 171" fill="none" xmlns="http://www.w3.org/2000/svg">
    <circle cx="81.9651" cy="81.9651" r="81.9651" fill="#F8F8F8" />
    <rect x="61.2578" y="53.1401" width="90.2254" height="98.6046" rx="1" fill="#EBF1ED" stroke="#C2C8C4"
        stroke-width="2" />
    <rect x="64.4531" y="68.5564" width="83.8341" height="79.8756" rx="0.5" fill="#F9FDFA" stroke="#C2C8C4" />
    <rect x="70.1094" y="56.3333" width="23.7134" height="15.4329" rx="0.5" fill="#F9FDFA" stroke="#C2C8C4" />
    <rect x="140.41" y="105.492" width="9.84125" height="3.11946" rx="1" fill="#F9FDFA" stroke="#C2C8C4" />
    <path d="M103.803 103.017L94.3223 112.498" stroke="#BAC2BD" stroke-linecap="round" />
    <path d="M120.789 96.4987L103.803 113.485" stroke="#BAC2BD" stroke-linecap="round" />
    <rect x="31" y="84" width="38.9428" height="67.7448" rx="1" fill="#EBF1ED" stroke="#C2C8C4" stroke-width="2" />
    <circle cx="20.5329" cy="65.4992" r="4.17743" stroke="#C2C8C4" />
    <circle cx="44.2683" cy="74.696" r="1.93038" stroke="#C2C8C4" />
    <path d="M59.3711 40.7437H68.5374" stroke="#C5D5CB" stroke-linecap="round" />
    <path d="M63.9551 36.1606L63.9551 45.3269" stroke="#C5D5CB" stroke-linecap="round" />
    <line x1="70.1113" y1="160.896" x2="139.414" y2="160.896" stroke="#CFDAD3" stroke-linecap="round" />
    <line x1="32.6074" y1="170.243" x2="81.466" y2="170.243" stroke="#CFDAD3" stroke-linecap="round" />
    <line x1="47.1992" y1="160.896" x2="61.7175" y2="160.896" stroke="#CFDAD3" stroke-linecap="round" />
    <rect x="34.5" y="87.5" width="32" height="54" rx="0.5" fill="#F9FDFA" stroke="#C2C8C4" />
    <circle cx="50.5" cy="146.5" r="3" fill="#F9FDFA" stroke="#C2C8C4" />
    <path d="M50.2109 112.601V122H55.5864V114.704L50.2109 112.601Z" fill="#C2C8C4" />
    <path d="M50.2109 107V111.702L55.5864 113.81V107H50.2109Z" fill="#C2C8C4" />
    <path d="M44 116.404V107H49.3755V114.295L44 116.404Z" fill="#C2C8C4" />
    <path d="M44 122V117.302L49.3755 115.194V122H44Z" fill="#C2C8C4" />
</svg>