<svg width="12" height="12" viewBox="0 0 12 12" fill="none" xmlns="http://www.w3.org/2000/svg">
<path d="M5.49995 10.8651C5.65198 10.9529 5.82445 10.9991 6 10.9991C6.17555 10.9991 6.34802 10.9529 6.50005 10.8651L10.0004 8.86487C10.1523 8.77718 10.2784 8.65109 10.3662 8.49925C10.454 8.34741 10.5003 8.17515 10.5005 7.99977V3.99928C10.5003 3.8239 10.454 3.65164 10.3662 3.4998C10.2784 3.34796 10.1523 3.22187 10.0004 3.13417L6.50005 1.13393C6.34802 1.04615 6.17555 0.999939 6 0.999939C5.82445 0.999939 5.65198 1.04615 5.49995 1.13393L1.9996 3.13417C1.84771 3.22187 1.72156 3.34796 1.63379 3.4998C1.54602 3.65164 1.49973 3.8239 1.49955 3.99928V7.99977C1.49973 8.17515 1.54602 8.34741 1.63379 8.49925C1.72156 8.65109 1.84771 8.77718 1.9996 8.86487L5.49995 10.8651Z" stroke="#4A4A4A" stroke-linecap="round" stroke-linejoin="round"/>
<path d="M6 10.9999V5.99933" stroke="#4A4A4A" stroke-linecap="round" stroke-linejoin="round"/>
<path d="M1.6448 3.49896L6.00024 5.99927L10.3557 3.49896" stroke="#4A4A4A" stroke-linecap="round" stroke-linejoin="round"/>
<path d="M3.74955 2.13385L8.25001 4.70916" stroke="#4A4A4A" stroke-linecap="round" stroke-linejoin="round"/>
</svg>
