<svg width="51" height="18" viewBox="0 0 51 18" fill="none" xmlns="http://www.w3.org/2000/svg">
<rect width="51" height="18" rx="3" fill="#0C63E2" fill-opacity="0.5"/>
<path d="M8.774 4.764C9.842 4.764 10.694 5.016 11.33 5.544C11.93 6.036 12.302 6.744 12.458 7.68H11.474C11.342 7.032 11.054 6.54 10.61 6.192C10.142 5.82 9.53 5.64 8.774 5.64C7.838 5.64 7.106 5.964 6.554 6.624C6.002 7.272 5.738 8.148 5.738 9.252C5.738 10.332 6.002 11.184 6.53 11.808C7.094 12.468 7.934 12.804 9.05 12.804C9.518 12.804 9.962 12.732 10.394 12.612C10.814 12.492 11.174 12.324 11.474 12.132V9.948H8.786V9.096H12.446V12.6C12.038 12.936 11.534 13.188 10.946 13.38C10.322 13.572 9.662 13.668 8.954 13.668C7.598 13.668 6.542 13.236 5.798 12.372C5.102 11.568 4.754 10.524 4.754 9.252C4.754 7.98 5.09 6.936 5.786 6.108C6.518 5.208 7.514 4.764 8.774 4.764Z" fill="#E6F2FF"/>
<path d="M22.7852 7.128C23.5532 7.128 24.1652 7.308 24.6332 7.668C25.1132 8.04 25.4012 8.604 25.5092 9.36H24.5612C24.4772 8.88 24.2852 8.52 23.9852 8.28C23.6732 8.04 23.2772 7.932 22.7852 7.932C22.1852 7.932 21.7052 8.16 21.3572 8.616C21.0212 9.06 20.8532 9.66 20.8532 10.416C20.8532 11.172 21.0092 11.772 21.3452 12.204C21.6692 12.636 22.1492 12.864 22.7732 12.864C23.8292 12.864 24.4412 12.324 24.5852 11.256H25.5452C25.4012 12.048 25.1012 12.66 24.6212 13.068C24.1532 13.464 23.5412 13.668 22.7732 13.668C21.8372 13.668 21.1172 13.356 20.6012 12.732C20.1092 12.144 19.8692 11.376 19.8692 10.428C19.8692 9.48 20.1092 8.712 20.6012 8.112C21.1292 7.452 21.8612 7.128 22.7852 7.128ZM29.4437 7.128C30.3677 7.128 31.1117 7.44 31.6637 8.088C32.1917 8.7 32.4557 9.468 32.4557 10.404C32.4557 11.328 32.1917 12.096 31.6757 12.696C31.1117 13.344 30.3677 13.668 29.4437 13.668C28.5077 13.668 27.7757 13.344 27.2237 12.696C26.6957 12.096 26.4317 11.328 26.4317 10.404C26.4317 9.468 26.6957 8.7 27.2237 8.088C27.7757 7.44 28.5077 7.128 29.4437 7.128ZM29.4437 7.932C28.7837 7.932 28.2677 8.184 27.9077 8.688C27.5717 9.144 27.4157 9.708 27.4157 10.404C27.4157 11.088 27.5717 11.652 27.9077 12.108C28.2677 12.612 28.7837 12.864 29.4437 12.864C30.0917 12.864 30.6077 12.612 30.9917 12.108C31.3157 11.652 31.4837 11.076 31.4837 10.404C31.4837 9.708 31.3157 9.144 30.9917 8.688C30.6077 8.184 30.0917 7.932 29.4437 7.932ZM38.287 4.764H39.247V13.5H38.347V12.48C37.915 13.272 37.219 13.668 36.283 13.668C35.371 13.668 34.663 13.332 34.159 12.684C33.691 12.084 33.463 11.316 33.463 10.38C33.463 9.468 33.691 8.724 34.159 8.124C34.663 7.452 35.347 7.128 36.235 7.128C37.123 7.128 37.807 7.56 38.287 8.436V4.764ZM36.439 7.92C35.755 7.92 35.239 8.16 34.903 8.64C34.591 9.06 34.447 9.636 34.447 10.38C34.447 11.124 34.591 11.712 34.891 12.144C35.227 12.624 35.731 12.876 36.403 12.876C37.027 12.876 37.507 12.636 37.855 12.156C38.155 11.724 38.311 11.16 38.311 10.464V10.344C38.311 9.624 38.131 9.036 37.795 8.592C37.447 8.136 36.991 7.92 36.439 7.92ZM43.2902 7.128C44.2862 7.128 45.0422 7.464 45.5462 8.136C46.0022 8.736 46.2422 9.588 46.2662 10.668H41.3702C41.4182 11.364 41.5982 11.904 41.9342 12.288C42.2702 12.672 42.7382 12.864 43.3262 12.864C43.8302 12.864 44.2502 12.732 44.5622 12.48C44.8262 12.264 45.0302 11.94 45.1862 11.508H46.1462C46.0022 12.108 45.7262 12.588 45.3062 12.972C44.7902 13.428 44.1302 13.668 43.3262 13.668C42.4382 13.668 41.7182 13.368 41.1902 12.792C40.6382 12.192 40.3742 11.4 40.3742 10.392C40.3742 9.48 40.6262 8.712 41.1542 8.1C41.6822 7.452 42.3902 7.128 43.2902 7.128ZM43.3142 7.932C42.7622 7.932 42.3182 8.112 41.9822 8.472C41.6462 8.832 41.4542 9.312 41.3942 9.924H45.2702C45.1502 8.592 44.4902 7.932 43.3142 7.932Z" fill="#E6F2FF"/>
<path d="M14.291 10.3047H17.2789" stroke="#E6F2FF" stroke-width="0.75"/>
</svg>
