<svg width="12" height="12" viewBox="0 0 12 12" fill="none" xmlns="http://www.w3.org/2000/svg">
<path d="M5.99958 9.32143V2.17857M5.99958 9.32143C5.99958 9.70031 5.84907 10.0637 5.58116 10.3316C5.31325 10.5995 4.94989 10.75 4.57101 10.75H3.14244C2.76356 10.75 2.4002 10.5995 2.13229 10.3316C1.86438 10.0637 1.71387 9.70031 1.71387 9.32143V2.17857C1.71387 1.79969 1.86438 1.43633 2.13229 1.16842C2.4002 0.90051 2.76356 0.75 3.14244 0.75H4.57101C4.94989 0.75 5.31325 0.90051 5.58116 1.16842C5.84907 1.43633 5.99958 1.79969 5.99958 2.17857M5.99958 9.32143C5.99958 9.70031 6.15009 10.0637 6.418 10.3316C6.68591 10.5995 7.04927 10.75 7.42815 10.75H8.85672C9.2356 10.75 9.59897 10.5995 9.86688 10.3316C10.1348 10.0637 10.2853 9.70031 10.2853 9.32143V2.17857C10.2853 1.79969 10.1348 1.43633 9.86688 1.16842C9.59897 0.90051 9.2356 0.75 8.85672 0.75H7.42815C7.04927 0.75 6.68591 0.90051 6.418 1.16842C6.15009 1.43633 5.99958 1.79969 5.99958 2.17857" stroke="#4A4A4A" stroke-linecap="round" stroke-linejoin="round"/>
</svg>
